<svg xmlns="http://www.w3.org/2000/svg" viewBox="0 0 64 64" role="img" aria-label="Rituraj Kumar logo">
  <defs>
    <linearGradient id="hexGradient" x1="18" y1="6" x2="48" y2="58" gradientUnits="userSpaceOnUse">
      <stop offset="0" stop-color="#6366F1" />
      <stop offset="1" stop-color="#4338CA" />
    </linearGradient>
    <mask id="cutout" maskUnits="userSpaceOnUse" x="0" y="0" width="64" height="64">
      <path d="M32 6l22 12.5v25L32 56 10 43.5v-25L32 6z" fill="#fff" />
      <path
        d="M24 18h8.4c5.2 0 9 3.2 9 8.4 0 3.5-1.7 6-4.8 7.3l5.8 9.9h-6.4l-5.2-8.8h-2.8v8.8h-4V18zm8.1 4.5h-4.1v6.8h4.1c2.8 0 4.5-1.3 4.5-3.6 0-2.4-1.7-3.2-4.5-3.2z"
        fill="#000"
      />
    </mask>
  </defs>
  <path
    d="M32 6l22 12.5v25L32 56 10 43.5v-25L32 6z"
    fill="url(#hexGradient)"
    mask="url(#cutout)"
  />
  <path
    d="M32 6l22 12.5v25L32 56 10 43.5v-25L32 6z"
    fill="none"
    stroke="#1e1b4b"
    stroke-width="1.6"
    stroke-linejoin="round"
  />
</svg>
